<svg xmlns="http://www.w3.org/2000/svg" xmlns:xlink="http://www.w3.org/1999/xlink" viewBox="0 0 841.89 595.28"><defs><style>.cls-1{fill:#0c7393;}.cls-2{fill:#084c66;}.cls-3{fill:#16b9d3;}.cls-4{fill:#04283a;}.cls-5{opacity:0.48;fill:url(#linear-gradient);}.cls-6{fill:#fff;}.cls-7,.cls-8{fill:none;stroke-miterlimit:10;}.cls-7{stroke:#000;stroke-width:2.19px;}.cls-8{stroke:#fcfcfc;stroke-linecap:round;stroke-width:1.81px;}</style><linearGradient id="linear-gradient" x1="378.51" y1="281.04" x2="600.24" y2="102.53" gradientUnits="userSpaceOnUse"><stop offset="0.01" stop-color="#005596"/><stop offset="0.51" stop-color="#15a6ff"/></linearGradient></defs><title>Logo final</title><g id="Layer_1" data-name="Layer 1"><path class="cls-1" d="M493.09,221.36s11.18,27.22,11.47,50-5.17,43.4-15.5,54.14-27,23-34.77,26.45-24.42,11-38.33,10-31.13-2.1-38.84-7.6-21.46-11.73-27.67-18.77-14.79-23.13-14.79-23.13-8-20.25-5.24-30.08-.56-18.64,9.12-38.26,25.11-34.52,26.1-35.54,18-16.73,24.37-18.1,31.9-21.6,34.9-24.23S444.65,146.38,450.3,138s17.81-25.89,18.55-33.64,7.9-17.73,8.76-35.44.44-35.07.44-35.07-7.37,38.6-17.27,49.86c-8.41,13.61-13.13,25.66-36.68,45.59-25.91,18.43-37.89,25.51-40.75,28.81S365,174.37,353.16,190.71s-23.66,32.94-27.48,40S308.55,274.36,311.3,287s-3.48,30.43,19.86,58.49c25.36,25,39.72,24.87,43.1,28.58s35.39,7.83,37.21,7.83,25.16-.93,44.78-8.87,44.06-27.48,50.13-35.41S526.26,306.21,528,291.8A171.57,171.57,0,0,0,526,238.39c-4-20-6-16.54-6-16.54Z"/><path class="cls-2" d="M489.46,153.88s-11.2-19-19.93,0c-10.56,17.62-31.65,37.07-23.72,51.05s43.79,15.84,43.79,15.84l28.64-.49s11.07,22.69,10.06,42.39c-2.36,19.54,2.57,20.23-5.39,44.27C512,329.69,505.9,336,505.9,336s-21.22,20-30.71,25.41-33.64,17.5-49.87,18.14c-16.46,2.79-37.95-.37-51.38-5.66-13.13-5.17-32.61-20.28-38.93-28.73s-16-21.3-16.32-28.31c-1.3-7-6.36-17.36-5.39-20.69s-3.38-25.84,1.11-36.49,7.17-23.19,9.36-25.46,13.15-21.23,14.87-22.47,12.68-18.67,13.78-19.16,14.95-18.15,15.37-18.62,8.32-9.68,8.32-9.68-14.93,9.29-17.65,11.61-23,25.44-23.92,26.55-16.74,21-17.69,23-13.21,30.35-13.07,33.14-4.26,21.71-4.26,26.64,2.09,28,2.53,29.6,8.93,22.85,11.14,25.06,7.44,10.91,10.64,13.77,23.1,18.86,28.2,21c5,3.88,25.54,13.31,34.91,14.56s32.88,3.11,40.34,1.1,33.83-6.44,42.94-13.48,22.47-13.24,28.87-18.79,19.19-17.82,22.39-24.05,11-17.39,12-23.2,7.61-24.43,7.35-32.08-1.25-27-1.35-28.68-5.09-21.45-5.56-24.91-10.14-21.58-13-22.39-12.07-7.14-16.7-8.15-6-3.12-6-3.12Z"/><path class="cls-3" d="M490.87,154.79l6.19,38.87s14.17,2.13,17.24,6,13.36,7.73,16.37,21,9.15,29.12,8.88,42.85-1.66,36.36-5.58,42.53-13.88,40.61-43.1,57.64-33.7,20.91-48.53,24-34.68,6.38-44.73,3.48-25-4.35-30.5-8.05-26.92-14-29.8-18.43-17.14-16.42-19.63-23.08-12.85-14.3-15.7-42,.9-41.24,1.34-42.7,9.42-25.41,13.53-31.53,30.39-40.62,33.14-41.29,15.2-16.65,22.36-18,25.92-20.5,31.23-22.21,28.15-21.13,31.07-24.17,15.58-18.7,21.28-29.46S469.08,63,470.91,57s6-19.18,5.36-28-1.18-7.71-3.48-3.63S456,53.4,444.32,61.25,419.85,82.91,405,89.09s-24.94,12.34-28,14.68-11.79,13.08-16.51,36.9c-.89,12.38-2.31,8.13-2.31,8.13L357,121.19l-1.19-12.07S328,128.61,325.6,130.88,295.69,163.42,293,170.5s-17.57,30.78-20.49,41.27c4.74,8.9,13.2,26.57,13.2,26.57l-.61,15.7L267,223.24s-5.4,38.81-1.4,52.93c2.37,14.57,8.95,44.74,16,54.19s17.73,31.22,32.89,42.74,33.16,23,52.29,29.06,49.66,6.87,66.08,3.1,40-8.94,53.12-18.32,31.29-26.06,37.29-35.73,14.49-24.92,17.25-35.48,8.92-31.88,8.16-40.94.65-28.18-4-43.68-15.08-35-16.5-37.63S498.79,157.56,490.87,154.79Z"/><path class="cls-4" d="M490.87,154.79l6.19,38.87s14.17,2.13,17.24,6,13.36,7.73,16.37,21,9.15,29.12,8.88,42.85-1.66,36.36-5.58,42.53-13.88,40.61-43.1,57.64-33.7,20.91-48.53,24-34.68,6.38-44.73,3.48-25-4.35-30.5-8.05-26.92-14-29.8-18.43-17.14-16.42-19.63-23.08-12.85-14.3-15.7-42,.9-41.24,1.34-42.7,9.42-25.41,13.53-31.53,30.39-40.62,33.14-41.29,15.2-16.65,22.36-18,25.92-20.5,31.23-22.21,28.15-21.13,31.07-24.17,15.58-18.7,21.28-29.46S469.08,63,470.91,57s6-19.18,5.36-28-1.18-7.71-3.48-3.63S456,53.4,444.32,61.25,419.85,82.91,405,89.09s-24.94,12.34-28,14.68-11.79,13.08-16.51,36.9c-.89,12.38-2.31,8.13-2.31,8.13L357,121.19l-1.19-12.07S328,128.61,325.6,130.88,295.69,163.42,293,170.5s-17.57,30.78-20.49,41.27c4.74,8.9,13.2,26.57,13.2,26.57l-.61,15.7L267,223.24s-5.4,38.81-1.4,52.93c2.37,14.57,8.95,44.74,16,54.19s17.73,31.22,32.89,42.74,33.16,23,52.29,29.06,49.66,6.87,66.08,3.1,40-8.94,53.12-18.32,31.29-26.06,37.29-35.73,14.49-24.92,17.25-35.48,8.92-31.88,8.16-40.94.65-28.18-4-43.68-15.08-35-16.5-37.63S498.79,157.56,490.87,154.79Z"/><path class="cls-5" d="M490.87,154.79l6.19,38.87s14.17,2.13,17.24,6,13.36,7.73,16.37,21,9.15,29.12,8.88,42.85-1.66,36.36-5.58,42.53-13.88,40.61-43.1,57.64-33.7,20.91-48.53,24-34.68,6.38-44.73,3.48-25-4.35-30.5-8.05-26.92-14-29.8-18.43-17.14-16.42-19.63-23.08-12.85-14.3-15.7-42,.9-41.24,1.34-42.7,9.42-25.41,13.53-31.53,30.39-40.62,33.14-41.29,15.2-16.65,22.36-18,25.92-20.5,31.23-22.21,28.15-21.13,31.07-24.17,15.58-18.7,21.28-29.46S469.08,63,470.91,57s6-19.18,5.36-28-1.18-7.71-3.48-3.63S456,53.4,444.32,61.25,419.85,82.91,405,89.09s-24.94,12.34-28,14.68-11.79,13.08-16.51,36.9c-.89,12.38-2.31,8.13-2.31,8.13L357,121.19l-1.19-12.07S328,128.61,325.6,130.88,295.69,163.42,293,170.5s-17.57,30.78-20.49,41.27c4.74,8.9,13.2,26.57,13.2,26.57l-.61,15.7L267,223.24s-5.4,38.81-1.4,52.93c2.37,14.57,8.95,44.74,16,54.19s17.73,31.22,32.89,42.74,33.16,23,52.29,29.06,49.66,6.87,66.08,3.1,40-8.94,53.12-18.32,31.29-26.06,37.29-35.73,14.49-24.92,17.25-35.48,8.92-31.88,8.16-40.94.65-28.18-4-43.68-15.08-35-16.5-37.63S498.79,157.56,490.87,154.79Z"/><path class="cls-6" d="M435.72,120.24c-10.28,10-17.29,14.75-27,21.4-7.68,5.26-17.22,11.78-31.44,23.06-21.26,21.13-43.06,52-53.4,71.62l-1.59-1.69c10.41-19.76,31.87-50.32,53.39-71.72,14.37-11.42,24-18,31.69-23.25,9.59-6.57,16.52-11.33,26.66-21.16,18.34-17.83,46.73-67.32,40.21-97L476,18.65C485,50.24,454.15,102.32,435.72,120.24Z"/><path class="cls-6" d="M409.48,409c-11.35,0-75-2.48-115.1-55.76-43.91-58.34-28.75-129.49-28.6-130.2l.67-3L284,250l.43-11.3c-4.94-10.92-10.78-22.7-12.39-24.39h-.62l-.3-1c-1-4.2,28.17-75.47,84-105.14l1.54-.82.22,1.74c1.38,11,2,23.3,2.23,31.8,2.69-11.55,7.66-29.36,13.83-35.52,2.49-2.49,7.93-5.21,15.46-9,21.33-10.64,57-28.45,81-67.49l5-7.83,2,1.31-5,7.8c-24.3,39.61-60.38,57.61-81.94,68.37-7,3.52-12.62,6.3-14.83,8.51-8.69,8.7-15.3,44.3-15.36,44.65l-2.4-.21c0-.23,0-21.72-2.19-40.36-54,29.67-79.89,94.82-81.17,101.36,1.51,1.54,4.82,6.89,13.21,25.45l.12.26-.78,20.1-18.55-31.55c-2.34,14.31-9.26,74.59,28.74,125.08,43.2,57.4,114.23,54.79,114.91,54.77,1.15,0,103.31,1.48,130.52-99s-52.22-152.13-53-152.64l2.89-.76c.82.52,80.14,51.7,52.46,154S412.31,409,411.24,409C411.18,409,410.58,409,409.48,409ZM271.93,214.13Z"/><path class="cls-6" d="M413.09,362.93a88.65,88.65,0,0,1-38.82-9.19c-36.58-17.68-54.42-59.73-41.5-97.82A118.51,118.51,0,0,1,338.53,242l.5-1c2.91-6.3,24.62-38,43.39-47.94,63.51-33.69,85.06-78.49,92-110.15,7.46-34.28-.14-60.9-.22-61.17l1.74-.51c.08.27,7.81,27.34.25,62.06-7,32-28.76,77.36-92.88,111.37-18.41,9.76-39.74,40.9-42.6,47.1l-.51,1.08a116.87,116.87,0,0,0-5.68,13.71c-12.62,37.22,4.82,78.31,40.58,95.59,32.46,15.69,67.05,10.79,100-14.18,44.66-33.82,26.12-97.11,16.11-116.62l1.6-.82c10.2,19.85,29,84.32-16.62,118.89C455.49,355,434.16,362.93,413.09,362.93Z"/><path class="cls-6" d="M411.09,393.32a116.3,116.3,0,0,1-43.67-8.64,107.42,107.42,0,0,1-59.74-59.9A111.84,111.84,0,0,1,309,237.86c1.09-2.47,2-4.43,2.69-5.8.28-.57.5-1,.67-1.4,3.74-8.09,37-56,63.4-67.62l1,2.21c-25.34,11.2-58.65,58.75-62.19,66.42l-.68,1.44c-.65,1.35-1.58,3.28-2.66,5.72a109.44,109.44,0,0,0-1.29,85,105,105,0,0,0,58.4,58.57c41,16.5,84.4,8.75,125.55-22.42,64.21-48.62,42.73-125.95,33.46-144-8.55-16.67-22-19.12-27.71-20.17-2.38-.43-3.82-.69-3.82-2.12s-4.58-24.85-7.6-40.14l2.37-.47c1.2,6.07,6.91,35,7.58,40,.44.12,1.2.26,1.9.39,6.08,1.11,20.33,3.71,29.43,21.44,9.46,18.43,31.4,97.38-34.16,147C467.82,382.78,439.28,393.32,411.09,393.32Zm87.13-199.63v0Z"/><path class="cls-7" d="M487.5,352.63c56.37-42.68,41-111.64,30.65-131.89"/><path class="cls-6" d="M411.72,381.94a103.9,103.9,0,0,1-31.7-5,98.9,98.9,0,0,1-60.44-55,102.2,102.2,0,0,1,1.3-84.4l.84-1.74c.25-.54.46-1,.61-1.3l2,.92-.63,1.32-.83,1.73a100,100,0,0,0-1.27,82.6,96.7,96.7,0,0,0,59.09,53.74C415.51,386,452.22,378,486.84,351.79c57.47-43.52,39.21-112.39,30.65-129.87-7.28.49-61.09,3.34-72.5-16-3.76-6.39-2.52-14.43,3.71-23.92,2.53-3.86,4.81-7.38,6.89-10.57,13.32-20.46,17.81-27.35,22.65-27.77,3.33-.3,5.94,2.54,10.31,7.23.93,1,1.95,2.09,3.06,3.25L490,155.66c-1.13-1.17-2.15-2.27-3.09-3.27-3.78-4.06-6.17-6.75-8.52-6.55-3.78.32-9.18,8.62-21,26.78-2.08,3.2-4.37,6.72-6.9,10.58-5.73,8.73-7,16-3.65,21.6,11.3,19.17,70.59,14.93,71.18,14.89l.72-.06.34.65c8.57,16.7,28.46,88.26-31,133.26C463.29,372.37,437.34,381.94,411.72,381.94Z"/><path class="cls-6" d="M494,222.16c-18.48-.78-41.91-4.23-49-16.24-3.76-6.39-2.52-14.43,3.71-23.92,2.53-3.86,4.81-7.38,6.89-10.57,13.32-20.46,17.81-27.35,22.65-27.77,3.33-.3,5.94,2.54,10.31,7.23.93,1,1.95,2.09,3.06,3.25l-.34,2.55c-1.12-1.18-3.38-3.3-4.32-4.3-3.78-4.06-6.17-6.75-8.52-6.55-3.78.32-9.18,8.62-21,26.78-2.08,3.2-4.37,6.72-6.9,10.58-5.73,8.73-7,16-3.65,21.6,6.43,10.91,28.42,14.24,46.28,15.07Z"/><circle class="cls-2" cx="417.43" cy="286.69" r="22.54"/><path class="cls-8" d="M432.59,158.09c0-2,5.25-11.86,1.83-20.11"/></g><g id="Capa_1" data-name="Capa 1"><path class="cls-2" d="M457,446.76a4.9,4.9,0,0,1-1.55,3.7,7.44,7.44,0,0,1-3.67,1.9,11.28,11.28,0,0,1-4.41.1,7.91,7.91,0,0,1-3.7-1.52c-1-.81-1.47-2.21-1.47-4.18V438h3.29v8.77a2.57,2.57,0,0,0,.66,2,5.35,5.35,0,0,0,4.46.88c2.05-.32,3.09-1.29,3.09-2.88v-12.6H457Zm-9.53-13.16v-2.71h3.39v2.71Z"/><path class="cls-2" d="M468.22,426.88a1.84,1.84,0,0,1-.53,1.45,2,2,0,0,1-.91.48,1.88,1.88,0,0,1-1.32-.2,2,2,0,0,1-.41-.26,3,3,0,0,1-.33.23,2.69,2.69,0,0,1-1.34.23,1.8,1.8,0,0,1-.83-.38,1.39,1.39,0,0,1-.49-.56,1.92,1.92,0,0,1-.2-1V424h1.22v2.81a.85.85,0,0,0,.22.66.84.84,0,0,0,.61.2.63.63,0,0,0,.54-.61v-2.53h1.19v2.53a.58.58,0,0,0,.5.61.7.7,0,0,0,.64-.2.78.78,0,0,0,.23-.66V424h1.21Zm-6.06,4.41v-1.36h5.78v1.36Z"/><path class="cls-2" d="M471.16,448.05c0,1.75-.38,3-1.16,3.6s-4.16,1.47-6.44,1.47l-1.5-3c.84,0,4.64-.2,5.12-.61a2.23,2.23,0,0,0,.71-1.82V446.5h-3.72a5.39,5.39,0,0,1-3.4-.83c-3.12-2.56-2.36-11.36,4.16-11.36h6.23Zm-6.08-10.87c-3.93,0-3.95,6-1.24,6h4.05v-6Z"/><path class="cls-2" d="M477.47,431.12v-1.37h5.78v1.37Z"/><path class="cls-2" d="M486.17,434.51c1.9,0,3.27.43,4.05,1.3s1.22,2.4,1.22,4.63-.36,3.68-1.09,4.57-2.18,1.47-4.18,1.47h-13v-3.3h13a2.57,2.57,0,0,0,2-.66,3.09,3.09,0,0,0,.54-2,3.18,3.18,0,0,0-.54-2.16,2.9,2.9,0,0,0-2-.53H475.83v-3.3Z"/><path class="cls-2" d="M349.44,441.23c0,7-2,9.1-7.56,9.1-2.66,0-4.86-.1-6.89-.23V432.36c2-.13,4.18-.23,6.89-.23C347.46,432.13,349.44,434.21,349.44,441.23Zm-10.55,6c.92,0,1.9,0,3,0,2.67,0,3.45-1.35,3.45-6s-.78-6.08-3.45-6.06l-3,0Z"/><path class="cls-2" d="M363.83,441.71v8.39h-3l-.38-1.93a6.21,6.21,0,0,1-4.69,2.23c-2.36,0-4.13-1.29-4.13-3.65v-1.29c0-2,1.44-3.22,3.87-3.22H360v-.55c0-1.3-.46-1.65-2.08-1.65-1.19,0-3.32.07-5.35.2l-.36-2.56a46.12,46.12,0,0,1,6.62-.63C362.11,437.05,363.83,438.14,363.83,441.71Zm-7.25,2.84c-.91,0-1.21.48-1.21,1.19v.51c0,.88.45,1.32,1.49,1.32a5.73,5.73,0,0,0,3.15-1.25v-1.77Z"/><path class="cls-2" d="M383.55,449.09a1.3,1.3,0,0,1-1.31,1h-3a1.36,1.36,0,0,1-1.36-1.17l-1.27-7.17c-.13-.71-.15-1.42-.31-2.13H376l-.3,2.13-1.27,7.17a1.35,1.35,0,0,1-1.37,1.17h-2.94a1.29,1.29,0,0,1-1.32-1l-3.12-11.66h3.83l1.73,8.21a12.7,12.7,0,0,1,.32,2.1h.33c.11-.71.21-1.39.33-2.1l1.3-7.1a1.27,1.27,0,0,1,1.31-1.11h2.67a1.3,1.3,0,0,1,1.34,1.14l1.27,7.07c.12.71.25,1.39.35,2.1h.3c.11-.71.16-1.37.31-2.1l1.75-8.21h3.82Z"/><path class="cls-2" d="M400.59,441.48c0,2.31-1.12,3.55-3.86,3.55h-4.58c.22,1.9,1.09,2.33,3,2.33,1.14,0,3-.1,4.72-.28l.38,2.39a14.15,14.15,0,0,1-5.55.93c-4.79,0-6.59-1.95-6.59-6.64,0-5,1.85-6.71,6.43-6.71C398.89,437.05,400.56,438.57,400.59,441.48Zm-8.52,1.27h3.6c1,0,1.19-.61,1.19-1.32,0-1.19-.53-1.59-2.18-1.59C392.78,439.84,392.17,440.34,392.07,442.75Z"/><path class="cls-2" d="M415.39,440.57v9.53h-3.78v-8.34c0-1.16-.3-1.49-1.24-1.49a8.37,8.37,0,0,0-3.52,1.16v8.67h-3.8V437.43h3.09l.28,1.87a8.77,8.77,0,0,1,5.42-2.25C414.15,437.05,415.39,438.29,415.39,440.57Z"/><path class="cls-2" d="M424.65,446.61V444.1h7.66v2.51Z"/></g></svg>